<?xml version="1.0" encoding="UTF-8"?>
<!DOCTYPE svg PUBLIC "-//W3C//DTD SVG 1.1//EN" "http://www.w3.org/Graphics/SVG/1.1/DTD/svg11.dtd">
<!-- Creator: Carlos Junio -->
<svg xmlns="http://www.w3.org/2000/svg" xml:space="preserve" width="50mm" height="50mm" version="1.1" style="shape-rendering:geometricPrecision; text-rendering:geometricPrecision; image-rendering:optimizeQuality; fill-rule:evenodd; clip-rule:evenodd"
viewBox="0 0 5000 5000"
 xmlns:xlink="http://www.w3.org/1999/xlink"
 xmlns:xodm="http://www.corel.com/coreldraw/odm/2003">
 <defs>
  <style type="text/css">
   <![CDATA[
    .fil1 {fill:#000066}
    .fil0 {fill:#000066;fill-rule:nonzero}
   ]]>
  </style>
 </defs>
 <g id="Layer_x0020_1">
  <metadata id="CorelCorpID_0Corel-Layer"/>
  <g id="_2815313949504">
   <g>
    <path id="path5" class="fil0" d="M2299.81 1696.96l0 -193.36c6.93,-2.66 13.71,-5.82 20.21,-9.66 92.19,-54.35 101.88,-208.76 21.62,-344.86 -80.24,-136.1 -220.03,-202.37 -312.22,-148.02 -92.19,54.36 -101.87,208.76 -21.64,344.86 12.95,21.96 27.46,42.06 43.06,60.16l0 143.65 -198.7 -113.71 0 -712.19 -69.65 -45.97c-63.44,115.59 -99.53,248.34 -99.53,389.5 0,438.62 348.04,795.71 783.15,810.12l0.07 -83.56 -166.37 -96.96 0 0z"/>
    <path id="path7" class="fil0" d="M2069.03 565.28l121.45 71.97c-2.4,19.96 -2.47,41.92 -2.4,49.48 1.12,107.01 146.04,188.36 304.03,186.72 157.99,-1.63 270.52,-97.35 269.72,-191.51 -0.9,-107.01 -103.81,-190.79 -261.74,-195.5 -53.46,-1.6 -105,9.08 -128.47,13.56l-88.58 -56.66 210.67 -120.19 621.02 360.98 71.22 -39.1c-68.52,-112.66 -165.56,-210.16 -287.9,-280.6 -380.11,-218.85 -863.24,-95.4 -1092.82,274.49l70.65 44.61 193.15 -118.25 0 0z"/>
    <path id="path9" class="fil0" d="M3135.68 957.64l-132.06 69.03c-4.78,-0.8 -34.1,-28.24 -40.69,-31.92 -93.5,-52.09 -231.13,16.78 -308.03,154.8 -76.89,138.02 -70.34,295.82 23.15,347.92 93.49,52.08 232.71,-10.41 309.61,-148.42 12.4,-22.27 28.97,-73.96 36.71,-96.56l112.51 -65.04 -0.67 246.95 -619.36 361.71 0.3 81.5c131.81,-3.66 264.6,-39.61 386.42,-110.93 378.49,-221.64 510.77,-702.41 303.35,-1085.16l-71.23 39.12 0 237 -0.01 0z"/>
   </g>
   <g>
    <path class="fil1" d="M1675.33 2437.19l94.64 -92.4 149.69 0 0 221.96c-81.44,0 -162.88,0 -244.33,0l0 423.27 -247.76 0 0 -710.61 278.74 -247.77 213.35 0 0 221.96c-81.44,0 -162.88,0 -244.33,0l0 183.59z"/>
    <path class="fil1" d="M2743.34 2315.62l0 674.4 -247.77 0 0 -158.89 -177.9 158.89c-106.86,0 -213.73,0 -320.59,0l0 -419.58 278.39 -254.82 467.87 0zm-247.77 453.98l0 -229.79 -251.79 0c0,75.76 1.06,152.8 1.06,229.79l250.73 0z"/>
    <path class="fil1" d="M2813.89 2090.44l247.77 0 0 385.24 174.16 -162.06c108.11,0 216.22,0 324.33,0l0 676.4 -576.86 0 -169.4 -154.92 0 -744.66zm247.77 447.73l0 231.43 250.72 0 0 -231.43 -250.72 0z"/>
   </g>
   <g>
    <polygon class="fil1" points="1438.28,3155.25 1686.05,3155.25 1686.05,3836.18 1932.16,3836.18 1932.16,4059.55 1438.28,4059.55 "/>
    <path class="fil1" d="M2729.97 3385.15l0 674.4 -247.76 0 0 -158.89 -177.91 158.89c-106.86,0 -213.73,0 -320.59,0l0 -419.58 278.39 -254.82 467.87 0zm-247.76 453.98l0 -229.79 -251.8 0c0,75.76 1.07,152.8 1.07,229.79l250.73 0z"/>
    <path class="fil1" d="M2803.18 3159.97l247.77 0 0 385.24 174.16 -162.06c108.11,0 216.22,0 324.33,0l0 676.4 -576.86 0 -169.4 -154.92 0 -744.66zm247.77 447.73l0 231.43 250.72 0 0 -231.43 -250.72 0z"/>
   </g>
   <path class="fil1" d="M1415.5 4236.53l2156.72 0 0 519.6 -2156.72 0 0 -519.6zm209.62 82.01l78.19 0 34.87 249.54 1 0 34.86 -249.54 78.2 0 0 348.66 -51.8 0 0 -263.98 -1 0 -39.84 263.98 -45.83 0 -39.84 -263.98 -1 0 0 263.98 -47.81 0 0 -348.66zm411.15 0l74.21 0 56.78 348.66 -54.79 0 -9.96 -69.23 0 0.99 -62.26 0 -9.96 68.24 -50.8 0 56.78 -348.66zm59.77 233.11l-24.41 -172.34 -1 0 -23.9 172.34 49.31 0zm198.47 -233.11l68.73 0 53.3 208.7 0.99 0 0 -208.7 48.82 0 0 348.66 -56.29 0 -65.74 -254.52 -1 0 0 254.52 -48.81 0 0 -348.66zm355.86 0l74.22 0 56.78 348.66 -54.79 0 -9.96 -69.23 0 0.99 -62.26 0 -9.96 68.24 -50.81 0 56.78 -348.66zm59.77 233.11l-24.4 -172.34 -1 0 -23.91 172.34 49.31 0zm277.17 120.53c-26.56,0 -46.82,-7.55 -60.76,-22.66 -13.95,-15.11 -20.92,-36.78 -20.92,-65l0 -265.98 54.79 0 0 269.96c0,11.96 2.41,20.59 7.22,25.9 4.81,5.32 11.7,7.97 20.67,7.97 8.96,0 15.85,-2.65 20.67,-7.97 4.81,-5.31 7.22,-13.94 7.22,-25.9l0 -269.96 52.8 0 0 265.98c0,28.22 -6.98,49.89 -20.92,65 -13.95,15.11 -34.2,22.66 -60.77,22.66zm292.61 0c-26.56,0 -46.65,-7.55 -60.26,-22.66 -13.62,-15.11 -20.42,-36.78 -20.42,-65l0 -19.93 51.79 0 0 23.91c0,22.58 9.47,33.87 28.39,33.87 9.3,0 16.36,-2.74 21.17,-8.22 4.82,-5.47 7.22,-14.36 7.22,-26.64 0,-14.61 -3.32,-27.48 -9.96,-38.6 -6.64,-11.13 -18.92,-24.49 -36.85,-40.1 -22.58,-19.92 -38.36,-37.94 -47.32,-54.04 -8.97,-16.11 -13.45,-34.28 -13.45,-54.54 0,-27.56 6.97,-48.9 20.92,-64 13.94,-15.11 34.2,-22.67 60.77,-22.67 26.23,0 46.07,7.56 59.52,22.67 13.44,15.1 20.17,36.77 20.17,65l0 14.44 -51.8 0 0 -17.93c0,-11.95 -2.33,-20.67 -6.98,-26.15 -4.65,-5.48 -11.45,-8.22 -20.42,-8.22 -18.26,0 -27.39,11.12 -27.39,33.37 0,12.62 3.4,24.41 10.21,35.37 6.81,10.95 19.18,24.24 37.11,39.84 22.91,19.93 38.68,38.02 47.31,54.29 8.64,16.27 12.95,35.37 12.95,57.28 0,28.56 -7.05,50.47 -21.16,65.75 -14.12,15.27 -34.62,22.91 -61.52,22.91z"/>
  </g>
 </g>
</svg>
